<?xml version="1.0" standalone="no"?>
<!DOCTYPE svg PUBLIC "-//W3C//DTD SVG 20010904//EN"
 "http://www.w3.org/TR/2001/REC-SVG-20010904/DTD/svg10.dtd">
<svg version="1.0" xmlns="http://www.w3.org/2000/svg"
 width="369.000000pt" height="236.000000pt" viewBox="0 0 369.000000 236.000000"
 preserveAspectRatio="xMidYMid meet">

<g transform="translate(0.000000,236.000000) scale(0.100000,-0.100000)"
fill="#000000" stroke="none">
<path d="M31 2334 c-28 -23 -31 -31 -31 -85 l0 -60 68 58 c37 32 83 70 102 85
l35 27 -72 1 c-63 0 -75 -3 -102 -26z"/>
<path d="M1622 2199 c-445 -28 -861 -153 -1150 -346 -101 -67 -262 -223 -319
-308 -150 -224 -175 -462 -71 -670 35 -68 116 -172 190 -240 362 -335 965
-522 1618 -502 512 16 875 122 1252 364 76 49 83 57 65 71 -6 5 -115 55 -242
110 -126 55 -311 136 -410 180 -99 44 -270 119 -380 167 -110 47 -226 98 -258
113 l-57 27 122 52 c68 29 233 99 368 157 135 57 349 148 475 201 287 122 390
169 399 184 11 18 -11 39 -109 104 -299 197 -669 308 -1125 336 -179 12 -186
12 -368 0z m498 -74 c289 -31 535 -98 755 -207 79 -39 226 -138 220 -148 -2
-4 -19 -13 -37 -20 -55 -22 -446 -185 -558 -233 -58 -25 -223 -95 -367 -156
-315 -134 -428 -187 -428 -203 0 -7 29 -25 65 -40 309 -130 950 -409 1062
-464 20 -9 35 -20 33 -24 -2 -3 5 -6 15 -7 10 -1 57 -18 105 -39 l86 -37 -34
-23 c-62 -42 -240 -135 -317 -166 -158 -64 -381 -121 -475 -122 -16 -1 -32 -4
-35 -8 -16 -22 -550 -40 -550 -19 0 5 -34 8 -75 7 -41 -1 -75 1 -75 6 0 4 -9
8 -20 8 -10 0 -23 7 -28 16 -6 11 -16 14 -31 9 -19 -6 -20 -9 -9 -23 11 -14
10 -14 -12 1 -27 19 -44 22 -35 7 3 -5 -3 -10 -15 -10 -12 0 -19 4 -15 9 3 6
-9 7 -30 4 -30 -5 -34 -3 -29 11 4 11 1 16 -14 16 -11 0 -23 -6 -25 -12 -3 -8
-6 -5 -6 5 -1 15 -8 18 -41 16 -21 -2 -43 1 -47 6 -4 4 -2 5 5 1 6 -4 12 -2
12 3 0 9 -73 16 -83 9 -2 -2 -12 4 -22 12 -17 13 -18 13 -10 0 7 -12 6 -13 -7
-3 -8 7 -18 10 -21 6 -4 -3 -7 0 -7 8 0 11 -2 11 -10 -1 -6 -9 -10 -11 -10 -3
0 7 -7 10 -17 6 -12 -5 -14 -3 -8 7 5 8 4 11 -3 6 -12 -7 -88 19 -112 39 -8 7
-23 11 -32 10 -11 -2 -18 3 -18 13 0 13 -2 14 -9 4 -6 -10 -10 -10 -21 3 -7 8
-21 15 -31 15 -11 0 -19 5 -19 11 0 5 -4 7 -10 4 -5 -3 -10 -1 -10 6 0 7 -3 9
-6 6 -8 -7 -91 36 -168 88 -131 87 -271 226 -332 331 -54 92 -74 166 -74 276
0 113 17 193 60 279 186 368 661 629 1280 703 155 19 483 19 650 1z"/>
<path d="M1849 1820 c-102 -18 -189 -80 -189 -134 0 -36 41 -88 90 -113 101
-52 242 -53 347 -4 135 64 129 178 -12 230 -61 23 -172 33 -236 21z"/>
<path d="M3363 2038 c-39 -10 -43 -34 -8 -50 34 -15 90 1 90 27 0 24 -39 35
-82 23z"/>
<path d="M3127 2009 c-25 -15 -4 -39 33 -39 35 0 61 27 39 41 -19 12 -50 11
-72 -2z"/>
<path d="M3670 1985 c0 -8 5 -15 10 -15 6 0 10 7 10 15 0 8 -4 15 -10 15 -5 0
-10 -7 -10 -15z"/>
<path d="M3256 1891 c-14 -22 25 -32 120 -29 80 2 99 6 99 18 0 12 -20 16
-107 18 -58 1 -109 -1 -112 -7z"/>
<path d="M3565 1890 c-13 -21 8 -30 66 -30 52 0 59 2 59 20 0 18 -7 20 -59 20
-33 0 -63 -4 -66 -10z"/>
<path d="M3380 1786 c0 -21 33 -26 178 -26 125 0 132 1 132 20 0 19 -7 20
-155 20 -125 0 -155 -3 -155 -14z"/>
<path d="M3208 1653 c-21 -5 -23 -14 -6 -31 14 -14 405 -17 427 -3 8 5 11 16
8 25 -6 14 -32 16 -209 15 -112 -1 -211 -3 -220 -6z"/>
<path d="M3030 1561 c-10 -7 -11 -13 -5 -20 6 -5 138 -12 295 -16 257 -6 287
-5 299 9 8 9 12 18 10 20 -10 10 -585 17 -599 7z"/>
<path d="M2820 1470 c-30 -19 6 -29 111 -31 113 -2 138 3 118 27 -13 16 -204
20 -229 4z"/>
<path d="M3153 1473 c-23 -9 -14 -31 16 -38 29 -6 107 -5 129 3 17 6 15 29 -4
36 -18 7 -123 7 -141 -1z"/>
<path d="M3550 1470 c-69 -3 -135 -11 -147 -18 -28 -15 -29 -47 -8 -120 22
-72 40 -82 155 -82 108 0 140 6 140 26 0 11 -21 14 -97 14 l-98 1 37 19 c20
11 39 24 42 29 4 5 22 5 46 -1 50 -13 70 -5 70 27 0 23 -2 24 -21 15 -24 -13
-59 -7 -136 24 l-55 23 62 6 c35 4 83 7 106 7 37 0 44 3 44 20 0 11 -3 19 -7
18 -5 -1 -64 -4 -133 -8z m-10 -110 c0 -7 -71 -52 -75 -48 -1 2 -6 22 -10 45
l-7 43 46 -17 c25 -10 46 -20 46 -23z"/>
<path d="M2611 1391 c-28 -18 1 -31 70 -31 75 0 123 15 98 31 -18 11 -150 11
-168 0z"/>
<path d="M2881 1370 c-53 -13 -63 -29 -62 -106 1 -102 -6 -99 236 -99 195 0
205 1 226 21 19 19 20 28 14 88 -11 97 -18 101 -220 103 -88 1 -175 -2 -194
-7z m289 -41 c-41 -28 -92 -49 -117 -49 -15 1 -55 14 -88 30 l-60 28 140 1
c98 0 136 -2 125 -10z m-232 -42 l43 -23 -51 -21 -50 -21 0 44 c0 24 3 44 8
44 4 -1 26 -11 50 -23z m286 1 c14 -55 10 -59 -38 -41 l-45 17 32 22 c40 29
43 29 51 2z m-54 -66 l45 -21 -155 0 -155 0 45 23 c57 28 153 28 220 -2z"/>
<path d="M2515 1310 c-15 -24 18 -42 67 -38 55 6 63 11 55 33 -7 18 -112 22
-122 5z"/>
<path d="M2186 1211 c-16 -26 27 -31 235 -29 182 3 214 5 214 18 0 13 -33 15
-222 18 -125 1 -224 -2 -227 -7z"/>
<path d="M3390 1153 c-51 -8 -80 -26 -87 -51 -9 -36 13 -134 34 -149 12 -9 66
-13 185 -13 161 0 168 1 168 20 0 19 -7 20 -137 20 l-138 0 40 23 c31 17 54
22 106 21 36 -1 75 -6 87 -13 28 -15 42 -14 42 3 0 8 -12 17 -27 21 l-28 7 28
20 c21 16 27 28 27 59 l0 39 -137 -1 c-76 -1 -149 -4 -163 -6z m233 -69 c-70
-39 -85 -38 -188 11 l-50 23 150 1 150 1 -62 -36z m-165 -39 c2 -1 -14 -12
-34 -24 -20 -12 -38 -20 -40 -19 -2 2 -6 23 -10 47 l-7 43 44 -22 c24 -12 45
-24 47 -25z"/>
<path d="M2185 1110 c-16 -26 14 -30 223 -30 210 0 252 5 238 29 -9 14 -452
16 -461 1z"/>
<path d="M2766 1111 c-16 -26 27 -31 225 -29 173 3 204 5 204 18 0 13 -31 15
-212 18 -119 1 -214 -2 -217 -7z"/>
<path d="M2421 1019 c-19 -7 -22 -12 -12 -22 8 -8 65 -13 185 -15 146 -2 176
0 186 13 7 9 10 19 6 23 -12 11 -338 13 -365 1z"/>
<path d="M2893 1024 c-31 -7 -29 -32 2 -40 38 -9 203 0 216 13 8 8 7 13 -2 18
-14 9 -184 16 -216 9z"/>
<path d="M2607 923 c-4 -3 -7 -12 -7 -20 0 -11 64 -13 344 -13 337 0 387 4
345 31 -16 10 -672 12 -682 2z"/>
<path d="M3246 835 c-21 -7 -43 -20 -48 -27 -14 -21 -1 -138 18 -159 16 -17
36 -19 246 -19 l228 0 0 100 c0 99 0 101 -26 110 -40 16 -372 12 -418 -5z
m339 -35 c-3 -4 -33 -20 -68 -35 l-64 -27 -79 34 -79 33 135 5 c139 5 163 4
155 -10z m61 -45 c25 -61 21 -65 -41 -42 -31 11 -54 21 -52 23 5 5 72 52 75
53 2 1 10 -15 18 -34z m-327 1 l45 -23 -30 -15 c-16 -9 -39 -19 -51 -22 -22
-7 -23 -4 -23 38 0 25 3 46 8 46 4 -1 27 -11 51 -24z m111 -46 c24 -7 45 -7
67 1 27 9 39 6 85 -18 l53 -28 -82 -3 c-45 -1 -122 -1 -170 0 l-88 3 50 27
c28 15 50 27 50 28 0 0 16 -4 35 -10z"/>
<path d="M2870 811 c0 -25 59 -39 97 -22 40 18 22 36 -40 39 -51 3 -57 1 -57
-17z"/>
<path d="M3025 740 c-9 -15 4 -30 25 -30 24 0 36 20 19 31 -19 12 -36 11 -44
-1z"/>
<path d="M3317 553 c-4 -3 -2 -12 4 -20 9 -10 53 -13 190 -13 172 0 179 1 179
20 0 19 -7 20 -183 20 -101 0 -187 -3 -190 -7z"/>
<path d="M3233 463 c-37 -5 -45 -28 -14 -38 22 -7 246 -5 274 2 9 2 17 10 17
17 0 22 -165 33 -277 19z"/>
<path d="M3630 452 c-28 -22 -22 -42 25 -97 l35 -40 0 78 c0 69 -2 77 -19 77
-10 0 -29 -8 -41 -18z"/>
<path d="M3035 360 c-3 -5 -3 -14 0 -20 9 -15 502 -13 511 1 3 6 0 15 -7 20
-20 12 -496 12 -504 -1z"/>
<path d="M2873 273 c-21 -8 -15 -30 10 -37 29 -7 135 -7 165 0 25 7 29 29 6
38 -19 7 -163 7 -181 -1z"/>
<path d="M3163 273 c-18 -7 -16 -30 2 -37 20 -7 45 3 45 19 0 10 -25 28 -33
24 -1 0 -8 -3 -14 -6z"/>
<path d="M3348 269 c-46 -26 4 -67 67 -55 42 8 56 33 30 52 -22 16 -73 18 -97
3z"/>
<path d="M0 46 l0 -46 51 0 c58 0 57 6 -13 61 l-38 31 0 -46z"/>
</g>
</svg>
